<?xml version="1.0" encoding="UTF-8"?>
<svg xmlns="http://www.w3.org/2000/svg" version="1.1" width="200" height="200" viewBox="0 0 200 200"><rect x="0" y="0" width="200" height="200" fill="#ffffff"/><g transform="scale(8)"><g transform="translate(0,0)"><path fill-rule="evenodd" d="M8 0L8 1L10 1L10 2L9 2L9 4L13 4L13 5L14 5L14 7L13 7L13 6L12 6L12 5L11 5L11 6L10 6L10 5L9 5L9 6L8 6L8 8L9 8L9 6L10 6L10 9L11 9L11 11L10 11L10 12L5 12L5 11L9 11L9 10L8 10L8 9L7 9L7 8L6 8L6 9L5 9L5 8L3 8L3 9L4 9L4 11L3 11L3 10L1 10L1 9L2 9L2 8L0 8L0 10L1 10L1 11L3 11L3 12L4 12L4 13L3 13L3 14L1 14L1 12L0 12L0 17L1 17L1 15L4 15L4 16L5 16L5 17L8 17L8 18L9 18L9 17L8 17L8 15L9 15L9 16L10 16L10 19L9 19L9 20L8 20L8 22L9 22L9 23L8 23L8 25L12 25L12 24L13 24L13 21L9 21L9 20L11 20L11 19L12 19L12 20L15 20L15 21L17 21L17 22L16 22L16 23L18 23L18 22L19 22L19 24L14 24L14 25L19 25L19 24L21 24L21 25L22 25L22 24L24 24L24 25L25 25L25 22L22 22L22 20L21 20L21 19L22 19L22 18L21 18L21 16L20 16L20 14L21 14L21 15L22 15L22 17L23 17L23 18L24 18L24 21L25 21L25 18L24 18L24 16L25 16L25 14L24 14L24 13L25 13L25 10L24 10L24 9L25 9L25 8L24 8L24 9L19 9L19 8L18 8L18 9L19 9L19 10L16 10L16 9L17 9L17 4L16 4L16 7L15 7L15 4L14 4L14 2L13 2L13 1L12 1L12 2L11 2L11 1L10 1L10 0ZM14 0L14 1L15 1L15 0ZM16 0L16 2L15 2L15 3L16 3L16 2L17 2L17 0ZM10 2L10 3L11 3L11 2ZM12 2L12 3L13 3L13 2ZM11 6L11 9L12 9L12 12L11 12L11 13L9 13L9 15L10 15L10 14L11 14L11 15L12 15L12 16L11 16L11 18L12 18L12 16L14 16L14 15L15 15L15 19L16 19L16 16L17 16L17 15L18 15L18 14L20 14L20 13L21 13L21 14L23 14L23 13L24 13L24 12L20 12L20 13L18 13L18 12L19 12L19 11L15 11L15 10L14 10L14 8L15 8L15 9L16 9L16 8L15 8L15 7L14 7L14 8L13 8L13 7L12 7L12 6ZM12 8L12 9L13 9L13 8ZM6 9L6 10L7 10L7 9ZM20 10L20 11L21 11L21 10ZM22 10L22 11L24 11L24 10ZM14 11L14 13L15 13L15 15L16 15L16 14L17 14L17 12L15 12L15 11ZM12 12L12 13L11 13L11 14L12 14L12 13L13 13L13 12ZM4 13L4 15L5 15L5 16L7 16L7 15L5 15L5 13ZM6 13L6 14L7 14L7 13ZM23 15L23 16L24 16L24 15ZM17 17L17 20L20 20L20 17ZM18 18L18 19L19 19L19 18ZM19 21L19 22L21 22L21 24L22 24L22 22L21 22L21 21ZM10 22L10 24L11 24L11 22ZM14 22L14 23L15 23L15 22ZM0 0L0 7L7 7L7 0ZM1 1L1 6L6 6L6 1ZM2 2L2 5L5 5L5 2ZM18 0L18 7L25 7L25 0ZM19 1L19 6L24 6L24 1ZM20 2L20 5L23 5L23 2ZM0 18L0 25L7 25L7 18ZM1 19L1 24L6 24L6 19ZM2 20L2 23L5 23L5 20Z" fill="#000000"/></g></g></svg>
