<?xml version="1.0" encoding="UTF-8"?>
<svg xmlns="http://www.w3.org/2000/svg" version="1.1" width="200" height="200" viewBox="0 0 200 200"><rect x="0" y="0" width="200" height="200" fill="#ffffff"/><g transform="scale(6.897)"><g transform="translate(0,0)"><path fill-rule="evenodd" d="M8 0L8 1L10 1L10 0ZM15 0L15 1L14 1L14 2L11 2L11 4L10 4L10 3L9 3L9 2L8 2L8 5L9 5L9 6L8 6L8 7L9 7L9 8L8 8L8 9L7 9L7 8L6 8L6 9L4 9L4 8L0 8L0 9L2 9L2 11L1 11L1 13L0 13L0 15L1 15L1 16L0 16L0 17L1 17L1 18L0 18L0 19L1 19L1 18L2 18L2 19L3 19L3 20L1 20L1 21L3 21L3 20L5 20L5 19L7 19L7 20L6 20L6 21L8 21L8 22L9 22L9 25L8 25L8 29L10 29L10 28L12 28L12 29L13 29L13 28L12 28L12 26L13 26L13 27L14 27L14 29L15 29L15 28L16 28L16 29L17 29L17 27L18 27L18 29L21 29L21 27L19 27L19 26L22 26L22 25L23 25L23 27L22 27L22 29L23 29L23 28L24 28L24 29L25 29L25 28L26 28L26 25L28 25L28 27L27 27L27 29L28 29L28 27L29 27L29 25L28 25L28 24L29 24L29 23L28 23L28 22L29 22L29 21L27 21L27 18L28 18L28 15L29 15L29 13L27 13L27 12L26 12L26 11L28 11L28 12L29 12L29 11L28 11L28 10L29 10L29 8L28 8L28 10L26 10L26 11L24 11L24 10L25 10L25 9L27 9L27 8L24 8L24 10L23 10L23 9L22 9L22 8L21 8L21 6L20 6L20 5L21 5L21 3L20 3L20 2L21 2L21 1L20 1L20 0L19 0L19 1L20 1L20 2L19 2L19 3L16 3L16 1L17 1L17 2L18 2L18 1L17 1L17 0ZM12 3L12 5L10 5L10 6L9 6L9 7L10 7L10 8L9 8L9 9L8 9L8 10L9 10L9 11L6 11L6 10L7 10L7 9L6 9L6 10L5 10L5 11L4 11L4 12L3 12L3 11L2 11L2 13L1 13L1 14L2 14L2 13L3 13L3 17L2 17L2 18L3 18L3 17L4 17L4 18L5 18L5 16L8 16L8 15L9 15L9 14L8 14L8 13L9 13L9 12L10 12L10 13L11 13L11 11L14 11L14 10L15 10L15 9L16 9L16 8L17 8L17 7L18 7L18 9L17 9L17 10L16 10L16 12L12 12L12 14L11 14L11 16L10 16L10 17L6 17L6 18L7 18L7 19L8 19L8 18L10 18L10 19L11 19L11 20L10 20L10 21L9 21L9 20L8 20L8 21L9 21L9 22L12 22L12 21L11 21L11 20L12 20L12 19L11 19L11 18L12 18L12 17L14 17L14 18L13 18L13 20L14 20L14 21L15 21L15 22L14 22L14 23L11 23L11 24L10 24L10 25L12 25L12 24L13 24L13 26L14 26L14 27L17 27L17 26L19 26L19 25L20 25L20 24L18 24L18 23L16 23L16 22L18 22L18 21L17 21L17 19L20 19L20 20L19 20L19 22L20 22L20 20L21 20L21 19L22 19L22 20L23 20L23 16L24 16L24 15L25 15L25 17L24 17L24 20L26 20L26 19L25 19L25 18L26 18L26 17L27 17L27 15L25 15L25 14L27 14L27 13L25 13L25 12L23 12L23 11L21 11L21 9L20 9L20 8L19 8L19 7L20 7L20 6L19 6L19 5L17 5L17 4L16 4L16 3ZM13 4L13 5L12 5L12 7L11 7L11 6L10 6L10 7L11 7L11 8L12 8L12 7L13 7L13 9L15 9L15 5L14 5L14 4ZM13 5L13 7L14 7L14 5ZM16 6L16 7L17 7L17 6ZM18 6L18 7L19 7L19 6ZM9 9L9 10L10 10L10 9ZM19 9L19 10L20 10L20 9ZM17 10L17 11L18 11L18 10ZM19 11L19 12L17 12L17 13L19 13L19 14L16 14L16 15L15 15L15 14L14 14L14 13L13 13L13 14L12 14L12 16L11 16L11 17L12 17L12 16L14 16L14 15L15 15L15 16L16 16L16 17L15 17L15 19L17 19L17 18L18 18L18 17L20 17L20 18L21 18L21 17L22 17L22 16L21 16L21 15L22 15L22 14L23 14L23 15L24 15L24 14L23 14L23 13L22 13L22 14L20 14L20 13L19 13L19 12L21 12L21 11ZM4 12L4 13L5 13L5 14L4 14L4 15L5 15L5 14L6 14L6 15L7 15L7 14L6 14L6 13L8 13L8 12ZM13 14L13 15L14 15L14 14ZM16 15L16 16L17 16L17 17L18 17L18 16L20 16L20 15ZM21 21L21 24L24 24L24 21ZM22 22L22 23L23 23L23 22ZM26 22L26 23L25 23L25 25L26 25L26 24L27 24L27 22ZM15 23L15 24L14 24L14 26L16 26L16 25L15 25L15 24L16 24L16 23ZM17 24L17 25L18 25L18 24ZM10 26L10 27L9 27L9 28L10 28L10 27L11 27L11 26ZM24 26L24 28L25 28L25 26ZM0 0L0 7L7 7L7 0ZM1 1L1 6L6 6L6 1ZM2 2L2 5L5 5L5 2ZM22 0L22 7L29 7L29 0ZM23 1L23 6L28 6L28 1ZM24 2L24 5L27 5L27 2ZM0 22L0 29L7 29L7 22ZM1 23L1 28L6 28L6 23ZM2 24L2 27L5 27L5 24Z" fill="#000000"/></g></g></svg>
