<?xml version="1.0" encoding="UTF-8"?>
<svg xmlns="http://www.w3.org/2000/svg" version="1.1" width="200" height="200" viewBox="0 0 200 200"><rect x="0" y="0" width="200" height="200" fill="#ffffff"/><g transform="scale(8)"><g transform="translate(0,0)"><path fill-rule="evenodd" d="M8 0L8 2L9 2L9 4L8 4L8 10L5 10L5 9L7 9L7 8L5 8L5 9L4 9L4 10L3 10L3 8L0 8L0 10L2 10L2 12L1 12L1 11L0 11L0 12L1 12L1 14L0 14L0 15L2 15L2 16L0 16L0 17L2 17L2 16L3 16L3 17L4 17L4 15L2 15L2 13L3 13L3 14L5 14L5 15L7 15L7 14L5 14L5 13L3 13L3 12L4 12L4 10L5 10L5 11L7 11L7 12L6 12L6 13L8 13L8 15L9 15L9 16L8 16L8 18L9 18L9 19L8 19L8 20L9 20L9 22L8 22L8 25L12 25L12 24L10 24L10 23L15 23L15 21L16 21L16 22L17 22L17 23L16 23L16 24L14 24L14 25L19 25L19 24L21 24L21 25L22 25L22 24L21 24L21 22L23 22L23 23L25 23L25 20L23 20L23 21L22 21L22 20L21 20L21 19L22 19L22 18L23 18L23 17L24 17L24 19L25 19L25 17L24 17L24 16L23 16L23 17L22 17L22 18L21 18L21 15L23 15L23 14L24 14L24 15L25 15L25 12L24 12L24 13L23 13L23 14L20 14L20 12L22 12L22 11L23 11L23 10L24 10L24 11L25 11L25 8L23 8L23 10L22 10L22 9L21 9L21 8L17 8L17 6L16 6L16 7L15 7L15 3L16 3L16 4L17 4L17 3L16 3L16 2L17 2L17 0L16 0L16 2L15 2L15 0L14 0L14 1L13 1L13 4L14 4L14 8L16 8L16 9L15 9L15 11L14 11L14 10L13 10L13 5L12 5L12 8L11 8L11 4L12 4L12 3L11 3L11 4L10 4L10 2L11 2L11 1L10 1L10 0ZM9 1L9 2L10 2L10 1ZM9 4L9 5L10 5L10 4ZM9 6L9 10L8 10L8 11L9 11L9 12L10 12L10 11L11 11L11 13L9 13L9 15L10 15L10 16L9 16L9 18L10 18L10 20L12 20L12 22L14 22L14 20L15 20L15 19L16 19L16 15L17 15L17 14L18 14L18 12L17 12L17 14L16 14L16 15L14 15L14 14L12 14L12 15L13 15L13 17L12 17L12 16L11 16L11 15L10 15L10 14L11 14L11 13L12 13L12 11L13 11L13 13L14 13L14 11L13 11L13 10L12 10L12 11L11 11L11 10L10 10L10 6ZM17 9L17 10L16 10L16 11L15 11L15 12L16 12L16 11L17 11L17 10L18 10L18 9ZM20 9L20 10L19 10L19 11L21 11L21 9ZM18 15L18 16L19 16L19 15ZM6 16L6 17L7 17L7 16ZM10 16L10 18L11 18L11 19L15 19L15 16L14 16L14 17L13 17L13 18L12 18L12 17L11 17L11 16ZM17 17L17 20L20 20L20 17ZM18 18L18 19L19 19L19 18ZM10 21L10 22L11 22L11 21ZM18 21L18 23L20 23L20 21ZM23 21L23 22L24 22L24 21ZM24 24L24 25L25 25L25 24ZM0 0L0 7L7 7L7 0ZM1 1L1 6L6 6L6 1ZM2 2L2 5L5 5L5 2ZM18 0L18 7L25 7L25 0ZM19 1L19 6L24 6L24 1ZM20 2L20 5L23 5L23 2ZM0 18L0 25L7 25L7 18ZM1 19L1 24L6 24L6 19ZM2 20L2 23L5 23L5 20Z" fill="#000000"/></g></g></svg>
